<?xml version="1.0" standalone="no"?>
<!DOCTYPE svg PUBLIC "-//W3C//DTD SVG 20010904//EN"
 "http://www.w3.org/TR/2001/REC-SVG-20010904/DTD/svg10.dtd">
<svg version="1.0" xmlns="http://www.w3.org/2000/svg"
 width="900.000000pt" height="900.000000pt" viewBox="0 0 900.000000 900.000000"
 preserveAspectRatio="xMidYMid meet">

<g transform="translate(0.000000,900.000000) scale(0.100000,-0.100000)"
fill="#326D62" stroke="none">
<path d="M4367 8993 c-5 -4 -61 -11 -125 -14 -129 -8 -197 -16 -227 -29 -11
-5 -47 -11 -80 -14 -152 -15 -274 -32 -281 -38 -4 -5 -18 -8 -31 -8 -12 0 -23
-4 -23 -9 0 -5 -15 -11 -32 -14 -141 -25 -202 -38 -230 -50 -18 -8 -60 -22
-93 -32 -86 -24 -143 -44 -185 -65 -9 -4 -31 -11 -50 -14 -36 -7 -42 -10 -120
-44 -25 -11 -56 -23 -70 -27 -81 -24 -478 -223 -602 -301 -64 -41 -120 -74
-124 -74 -11 0 -290 -198 -357 -253 -198 -163 -406 -357 -510 -478 -22 -24
-62 -69 -90 -100 -76 -82 -137 -155 -181 -218 -22 -31 -43 -58 -46 -61 -15
-12 -150 -210 -150 -219 0 -6 -4 -11 -9 -11 -5 0 -11 -8 -15 -17 -3 -10 -11
-27 -18 -37 -34 -52 -78 -126 -78 -131 0 -4 -13 -25 -28 -48 -16 -23 -40 -64
-54 -92 -13 -27 -34 -68 -45 -90 -12 -22 -31 -62 -43 -90 -13 -27 -42 -92 -66
-143 -24 -51 -44 -97 -44 -102 0 -6 -4 -18 -9 -28 -21 -40 -50 -112 -56 -138
-4 -16 -11 -39 -16 -51 -5 -13 -13 -33 -18 -45 -9 -22 -23 -63 -50 -149 -6
-19 -11 -44 -11 -55 0 -11 -4 -24 -8 -29 -5 -6 -17 -46 -26 -90 -9 -44 -21
-94 -26 -111 -6 -17 -10 -42 -10 -55 0 -14 -4 -29 -9 -34 -5 -6 -11 -28 -14
-50 -3 -22 -13 -92 -21 -155 -69 -497 -78 -961 -27 -1275 6 -33 15 -105 22
-160 6 -55 15 -104 20 -110 5 -5 9 -21 9 -36 0 -15 4 -30 9 -33 5 -3 11 -20
14 -38 23 -131 30 -164 38 -173 5 -5 9 -22 9 -37 0 -15 4 -28 9 -28 5 0 11
-12 14 -27 26 -130 44 -199 58 -218 3 -5 19 -46 33 -90 15 -44 41 -108 57
-142 16 -35 32 -76 35 -93 4 -16 9 -30 13 -30 3 0 12 -15 20 -33 7 -17 19 -46
27 -64 8 -17 14 -36 14 -42 0 -6 3 -11 8 -11 4 0 13 -15 21 -32 30 -69 65
-143 71 -148 4 -4 23 -36 54 -95 6 -11 14 -22 17 -25 3 -3 19 -30 35 -60 16
-30 32 -56 37 -58 4 -2 7 -7 7 -12 0 -19 219 -332 251 -360 3 -3 21 -28 40
-56 19 -28 63 -84 99 -125 68 -78 394 -407 445 -449 17 -14 59 -50 95 -80 35
-30 69 -58 75 -63 5 -4 37 -28 70 -53 128 -98 404 -284 421 -284 3 0 18 -8 32
-19 55 -38 305 -169 412 -216 161 -70 176 -76 293 -119 237 -89 468 -154 697
-197 925 -175 1819 -74 2679 301 687 300 1332 817 1791 1435 643 866 957 1949
872 3015 -17 209 -65 530 -101 668 -5 20 -19 75 -31 122 -66 256 -196 604
-320 850 -87 174 -96 190 -182 333 -53 88 -81 132 -148 232 -33 48 -118 162
-142 189 -10 11 -18 23 -18 27 0 4 -6 14 -13 21 -7 7 -30 35 -52 63 -22 27
-53 66 -70 85 -49 58 -396 402 -459 455 -92 78 -378 295 -414 314 -11 6 -27
17 -34 23 -18 17 -45 33 -88 55 -19 9 -37 20 -40 24 -9 11 -119 79 -129 79 -5
0 -11 3 -13 8 -3 8 -32 24 -177 98 -58 30 -108 54 -113 54 -4 0 -33 12 -65 26
-32 15 -74 33 -93 41 -68 28 -85 35 -102 44 -10 5 -25 9 -33 9 -8 0 -15 3 -15
8 0 4 -28 16 -62 27 -35 10 -70 22 -78 26 -53 24 -103 41 -185 64 -33 9 -69
21 -80 25 -71 28 -102 35 -248 57 -20 3 -40 9 -43 14 -3 5 -16 9 -30 9 -13 0
-32 4 -42 10 -18 10 -127 27 -257 40 -44 5 -105 13 -135 19 -120 24 -588 50
-603 34z m463 -128 c218 -18 364 -38 550 -76 685 -140 1317 -441 1880 -893
168 -135 510 -478 643 -645 469 -590 761 -1221 901 -1946 198 -1037 1 -2139
-546 -3047 -388 -645 -934 -1182 -1577 -1552 -553 -319 -1138 -505 -1786 -568
-169 -16 -624 -16 -790 0 -884 88 -1658 402 -2356 959 -157 125 -498 462 -621
613 -359 441 -610 893 -779 1400 -147 443 -212 817 -225 1295 -19 693 134
1388 446 2020 220 445 473 798 830 1156 246 247 416 389 667 557 813 545 1806
806 2763 727z"/>
<path d="M3963 8467 c-57 -8 -63 -11 -59 -30 3 -12 12 -92 21 -177 35 -338 53
-501 56 -505 2 -2 81 5 174 16 94 10 185 19 204 19 l33 0 -7 58 c-4 31 -8 58
-9 60 -2 1 -63 -4 -137 -12 -74 -8 -137 -11 -140 -8 -4 4 -19 120 -33 259 -15
138 -30 269 -34 290 l-7 38 -62 -8z"/>
<path d="M4878 8449 c-10 -19 -42 -81 -73 -139 -190 -355 -265 -497 -265 -501
0 -3 6 -6 13 -6 6 0 36 -3 64 -7 l53 -7 32 66 c32 64 33 65 73 64 22 0 94 -8
160 -17 l120 -17 19 -71 18 -71 70 -10 c61 -8 69 -7 65 6 -3 9 -48 176 -102
371 -53 195 -98 356 -99 357 -1 1 -31 5 -66 9 l-65 6 -17 -33z m97 -214 c9
-44 26 -114 36 -155 10 -41 17 -76 15 -77 -5 -6 -206 21 -218 28 -10 6 6 46
61 155 40 80 77 142 81 137 4 -4 15 -44 25 -88z"/>
<path d="M3179 8292 c-118 -31 -208 -105 -258 -212 -22 -47 -26 -68 -26 -150
0 -82 4 -103 27 -152 35 -75 107 -151 176 -185 42 -20 74 -28 137 -31 176 -9
317 72 388 225 31 68 31 226 -1 293 -53 113 -137 186 -247 215 -74 19 -113 18
-196 -3z m174 -122 c99 -37 166 -135 167 -243 0 -68 -16 -110 -61 -162 -126
-143 -351 -99 -422 83 -55 140 32 295 188 333 50 12 72 10 128 -11z"/>
<path d="M5650 8284 c-45 -19 -68 -41 -90 -84 -60 -118 -25 -194 136 -303 96
-64 118 -89 118 -134 0 -76 -96 -108 -185 -63 -44 23 -79 71 -79 111 0 23 -8
29 -57 47 -31 12 -59 19 -61 17 -14 -14 -13 -100 2 -139 63 -165 349 -240 458
-119 30 33 58 107 58 154 0 74 -42 127 -172 214 -79 54 -108 87 -108 126 0 70
88 94 172 46 39 -21 72 -75 63 -100 -4 -10 11 -20 53 -35 32 -12 62 -22 66
-22 3 0 6 28 6 63 0 46 -6 72 -23 102 -57 101 -250 165 -357 119z"/>
<path d="M6390 7878 c-41 -62 -127 -193 -192 -291 -65 -98 -118 -181 -118
-185 0 -8 100 -75 105 -70 1 2 39 58 84 126 45 67 84 122 86 122 6 0 233 -147
248 -160 5 -4 -26 -60 -68 -125 -42 -64 -79 -122 -81 -130 -5 -13 81 -78 97
-73 9 3 389 575 389 586 0 14 -102 74 -109 65 -85 -132 -148 -223 -156 -223
-8 0 -255 159 -255 165 0 1 34 53 75 115 41 62 75 117 75 121 0 8 -68 55 -94
65 -8 3 -42 -40 -86 -108z"/>
<path d="M2373 7898 c-24 -16 -43 -33 -43 -37 0 -4 34 -56 75 -115 41 -59 75
-111 75 -116 0 -7 -188 -145 -237 -173 -7 -5 -41 35 -93 108 -44 63 -83 115
-85 115 -3 0 -27 -16 -55 -36 l-50 -36 44 -61 c83 -118 201 -287 281 -401 44
-63 84 -115 88 -116 13 0 97 60 97 70 0 5 -38 63 -85 129 l-84 121 102 71 c56
40 114 80 128 90 l26 18 87 -124 c48 -69 89 -125 92 -125 2 0 26 16 54 36 l50
36 -58 82 c-257 369 -348 495 -357 495 -5 0 -29 -14 -52 -31z"/>
<path d="M4271 7450 c-391 -33 -726 -127 -1088 -305 -661 -326 -1175 -886
-1446 -1575 -262 -667 -273 -1419 -31 -2087 362 -999 1213 -1724 2254 -1922
194 -37 292 -45 540 -45 212 0 281 4 410 22 655 95 1222 377 1686 837 247 245
409 467 560 765 74 146 94 192 141 320 226 612 241 1303 42 1924 -290 908
-994 1622 -1894 1921 -289 96 -559 142 -870 149 -110 3 -247 1 -304 -4z m664
-140 c614 -99 1145 -369 1581 -804 88 -89 193 -204 233 -256 319 -414 505
-843 582 -1342 32 -205 37 -555 11 -763 -70 -560 -282 -1050 -641 -1485 -91
-109 -291 -307 -401 -396 -400 -324 -867 -528 -1400 -611 -166 -26 -627 -26
-790 0 -515 82 -936 259 -1335 560 -202 153 -469 432 -620 649 -125 178 -258
436 -335 646 -268 734 -220 1557 131 2252 421 833 1216 1413 2125 1549 194 29
200 29 479 26 194 -3 279 -8 380 -25z"/>
<path d="M2975 5696 c-234 -54 -396 -206 -471 -441 -12 -38 -23 -61 -24 -50
-1 11 -2 121 -3 244 l-2 223 -58 2 -57 1 0 -1213 0 -1213 58 3 57 3 1 233 c1
128 4 235 7 238 3 3 12 -21 21 -53 73 -269 315 -453 596 -453 332 0 598 251
617 580 10 192 -47 343 -181 475 -107 106 -167 135 -371 184 -26 6 -19 9 53
23 101 20 193 62 271 123 70 55 109 102 154 186 61 112 72 160 71 299 0 110
-3 134 -27 200 -38 105 -82 172 -157 244 -80 75 -133 107 -236 142 -96 32
-230 40 -319 20z m248 -122 c93 -24 156 -61 230 -135 95 -95 138 -189 145
-314 5 -108 -7 -176 -50 -262 -81 -166 -256 -274 -443 -275 -139 -1 -241 40
-346 139 -106 100 -159 222 -159 364 0 322 312 564 623 483z m-705 -693 c28
-85 75 -160 144 -229 97 -96 197 -146 358 -179 44 -9 44 -10 15 -16 -198 -44
-261 -75 -365 -177 -84 -82 -136 -170 -166 -278 -9 -34 -19 -60 -21 -58 -3 3
-6 998 -3 1031 2 13 14 -16 38 -94z"/>
<path d="M4515 5693 c-117 -25 -209 -76 -301 -168 -87 -86 -131 -158 -160
-264 -10 -34 -21 -61 -26 -61 -4 0 -8 107 -8 238 l0 237 -57 -1 -58 -1 0
-1209 0 -1209 58 -3 57 -3 0 243 c1 216 2 241 15 224 8 -11 15 -30 15 -42 0
-12 21 -63 46 -113 131 -263 422 -394 709 -321 337 86 537 443 436 777 -23 75
-76 172 -127 231 -77 90 -218 172 -330 193 -102 19 -104 24 -16 41 227 45 410
214 478 443 24 80 24 237 0 325 -86 319 -406 513 -731 443z m-467 -763 c17
-71 67 -169 123 -238 85 -105 195 -172 344 -208 96 -23 96 -25 -5 -43 -108
-20 -203 -73 -296 -165 -87 -87 -131 -159 -160 -265 -10 -34 -21 -61 -26 -61
-4 0 -8 232 -8 515 0 283 4 515 8 515 5 0 14 -22 20 -50z m704 -601 c92 -19
176 -66 247 -138 160 -160 195 -387 91 -592 -53 -102 -187 -209 -311 -245
-125 -37 -293 -10 -408 67 -145 97 -221 243 -221 423 1 191 103 356 275 442
105 52 215 66 327 43z"/>
<path d="M5945 5700 c-194 -39 -358 -164 -445 -338 -61 -124 -60 -95 -60
-1150 l0 -963 56 3 56 3 0 723 c0 480 4 722 10 722 6 0 28 -20 49 -44 40 -46
133 -109 204 -139 221 -94 485 -47 664 119 38 35 72 64 75 64 3 0 6 -326 6
-725 l0 -725 60 0 61 0 -4 973 c-3 1071 1 1007 -66 1142 -65 129 -166 227
-299 287 -114 52 -255 70 -367 48z m217 -121 c219 -45 398 -265 398 -487 0
-219 -155 -424 -370 -488 -125 -37 -294 -10 -406 65 -75 50 -114 91 -158 165
-48 80 -69 155 -70 251 -2 319 292 559 606 494z"/>
<path d="M1442 7083 l-41 -47 21 -40 c11 -23 48 -90 81 -151 82 -151 92 -169
182 -338 l80 -148 42 48 c23 26 42 52 43 56 0 5 -16 36 -35 69 -30 51 -34 63
-23 77 7 8 53 63 102 121 49 58 90 106 91 107 1 2 32 -9 70 -24 l69 -26 43 47
c24 26 43 51 43 55 0 6 -697 241 -718 241 -6 0 -28 -21 -50 -47z m272 -144
c78 -28 145 -55 150 -59 7 -7 -125 -170 -143 -177 -6 -3 -161 268 -161 280 0
11 7 9 154 -44z"/>
<path d="M7300 6832 c-195 -53 -357 -97 -359 -98 -7 -6 71 -104 83 -104 7 0
35 7 62 15 27 8 56 15 65 15 9 0 56 -55 108 -124 l91 -124 -41 -66 -40 -65 37
-50 c21 -28 41 -51 45 -51 3 0 34 46 69 103 35 56 78 125 95 152 17 28 74 120
125 205 51 85 99 162 106 170 10 12 5 24 -27 68 -22 28 -45 52 -52 51 -7 -1
-172 -44 -367 -97z m294 -54 c-50 -85 -179 -267 -184 -261 -49 57 -130 177
-124 183 9 9 278 88 302 89 8 1 10 -4 6 -11z"/>
<path d="M1045 6449 c-22 -11 -49 -32 -61 -47 -23 -30 -168 -312 -162 -316 10
-9 631 -317 633 -314 16 16 147 288 156 322 23 91 -20 185 -104 228 -51 26
-145 22 -177 -7 -18 -16 -23 -17 -30 -5 -6 8 -10 23 -10 33 0 29 -43 85 -81
107 -47 26 -113 26 -164 -1z m109 -113 c38 -16 66 -50 66 -81 0 -19 -74 -185
-82 -185 -4 0 -162 80 -166 84 -4 5 68 139 87 160 13 15 40 31 59 35 1 1 18
-5 36 -13z m305 -142 c24 -20 31 -34 31 -61 0 -39 -68 -193 -85 -193 -6 0 -47
18 -93 40 l-82 40 36 73 c49 98 78 127 125 127 26 0 47 -8 68 -26z"/>
<path d="M7790 6206 c-205 -57 -322 -256 -265 -452 55 -193 219 -297 414 -264
39 6 73 15 76 19 3 6 -119 326 -130 339 -1 2 -20 -5 -41 -15 -22 -9 -40 -18
-41 -18 -2 -1 16 -47 38 -104 23 -56 39 -104 36 -108 -14 -13 -98 10 -136 37
-46 34 -97 116 -106 172 -12 70 12 136 69 193 169 169 429 72 431 -160 0 -48
-6 -69 -27 -107 l-28 -46 22 -61 c12 -34 25 -61 29 -61 15 0 73 76 95 125 59
129 31 298 -68 411 -85 96 -234 137 -368 100z"/>
<path d="M576 5288 c-7 -21 -25 -113 -22 -115 1 -1 53 -11 116 -23 211 -39
264 -49 420 -79 85 -16 157 -28 161 -25 4 2 10 25 14 50 3 26 9 52 11 59 4 9
-22 18 -88 30 -219 39 -574 106 -591 111 -9 3 -19 -1 -21 -8z"/>
<path d="M8090 5205 c-162 -24 -310 -44 -327 -44 -25 -1 -33 -5 -33 -18 1 -30
56 -403 61 -407 2 -2 28 -1 57 1 62 7 60 -2 33 178 -10 66 -17 122 -15 124 2
2 43 10 90 16 61 8 87 8 90 1 4 -13 34 -215 34 -233 0 -9 12 -11 48 -7 26 3
52 7 58 9 7 2 5 40 -8 122 -10 65 -16 122 -15 128 4 12 159 37 168 27 9 -9 39
-202 39 -244 l0 -31 57 7 c31 4 59 8 61 11 2 2 -9 93 -24 202 -29 196 -29 198
-54 200 -14 1 -158 -18 -320 -42z"/>
<path d="M807 4762 l-318 -2 3 -63 3 -62 240 4 c201 3 238 1 228 -10 -6 -8
-113 -88 -237 -179 l-225 -165 -1 -62 0 -63 168 0 c92 0 251 3 355 7 l187 6 0
59 0 58 -240 0 c-132 0 -240 3 -239 8 0 4 108 86 240 182 l239 175 -2 55 -3
55 -40 0 c-22 0 -183 -1 -358 -3z"/>
<path d="M7795 4434 c-4 -31 -3 -60 2 -64 4 -4 102 -15 217 -25 115 -10 221
-21 235 -25 23 -6 -1 -22 -199 -140 -332 -196 -300 -171 -300 -233 l0 -53 253
-23 c138 -12 297 -27 351 -32 54 -5 100 -8 101 -7 2 2 5 30 6 63 l4 60 -120
12 c-66 6 -169 15 -228 19 -59 4 -111 12 -114 17 -4 6 -2 12 4 14 5 2 117 66
249 143 257 150 250 144 253 231 l1 35 -187 17 c-104 10 -258 24 -343 32 -85
8 -160 15 -166 15 -7 0 -15 -25 -19 -56z"/>
<path d="M900 3784 c-173 -86 -317 -157 -319 -159 -6 -7 41 -135 50 -135 5 0
87 -9 182 -19 94 -11 205 -23 245 -26 39 -4 72 -10 72 -14 0 -4 -86 -83 -191
-175 -104 -93 -188 -174 -186 -180 2 -6 12 -37 21 -68 10 -36 21 -56 29 -53
10 4 492 78 650 101 26 3 47 9 47 12 0 3 -7 32 -16 64 -16 57 -17 58 -48 53
-46 -8 -395 -62 -438 -68 -21 -3 -38 -2 -38 2 0 4 87 86 194 182 180 161 213
195 202 206 -6 6 -106 20 -335 48 -192 23 -221 29 -210 39 2 2 103 52 224 111
121 59 222 108 224 111 6 5 -31 124 -38 124 -3 0 -148 -70 -321 -156z"/>
<path d="M8234 3417 c-42 -129 -30 -121 -137 -83 -255 92 -459 158 -466 150
-11 -12 -42 -106 -37 -111 2 -2 124 -45 272 -95 148 -50 272 -94 277 -98 4 -3
-6 -46 -23 -95 -16 -49 -30 -92 -30 -96 0 -9 99 -43 106 -37 2 3 18 45 35 94
112 323 139 408 132 414 -5 4 -29 14 -55 23 l-47 15 -27 -81z"/>
<path d="M7407 2958 c-118 -197 -187 -318 -187 -328 0 -7 82 -60 93 -60 2 0
35 53 72 118 37 64 69 119 71 121 2 2 116 -62 254 -143 138 -80 254 -146 259
-146 8 0 74 101 69 105 -13 10 -608 355 -612 355 -3 0 -12 -10 -19 -22z"/>
<path d="M1469 2772 c-90 -54 -224 -133 -297 -176 -72 -43 -135 -82 -138 -87
-7 -11 49 -104 62 -104 6 0 145 80 311 179 l301 179 -31 49 c-17 27 -34 51
-37 53 -4 3 -81 -39 -171 -93z"/>
<path d="M1773 2532 l-42 -37 89 -105 c49 -58 90 -108 90 -111 0 -3 -101 -90
-225 -193 -124 -103 -225 -191 -225 -194 1 -4 18 -27 40 -50 35 -39 41 -42 58
-30 10 7 134 109 275 227 l256 213 -42 52 c-120 146 -222 266 -227 266 -3 0
-24 -17 -47 -38z"/>
<path d="M7031 2401 l-41 -48 103 -84 c56 -46 180 -148 275 -227 l173 -144 39
44 c22 23 39 48 39 53 1 6 -30 35 -67 65 -37 30 -158 130 -269 222 -112 92
-205 168 -207 168 -2 0 -22 -22 -45 -49z"/>
<path d="M2269 2031 c-12 -16 -356 -414 -423 -489 l-21 -24 45 -39 c25 -21 48
-39 52 -39 3 0 111 120 238 266 l232 266 -43 39 c-50 44 -61 46 -80 20z"/>
<path d="M6673 2016 c-178 -58 -284 -227 -254 -401 11 -59 37 -126 70 -174 7
-11 36 7 138 89 70 57 134 109 142 116 12 11 10 18 -16 47 l-30 34 -87 -70
c-98 -79 -106 -78 -106 8 0 63 26 119 75 167 55 53 100 72 170 73 47 0 69 -6
105 -27 115 -67 170 -186 140 -298 -18 -65 -97 -143 -170 -164 -45 -13 -64
-14 -111 -5 l-58 11 -45 -37 c-25 -21 -46 -41 -46 -45 0 -4 24 -18 52 -30 205
-88 450 40 505 263 14 58 14 78 4 134 -24 128 -107 239 -219 291 -69 31 -192
40 -259 18z"/>
<path d="M2576 1726 c-47 -18 -94 -61 -112 -103 -18 -42 -17 -121 1 -153 20
-35 19 -37 -22 -44 -147 -24 -195 -192 -86 -298 21 -20 96 -71 167 -113 105
-62 131 -74 141 -63 7 7 65 103 130 213 65 110 143 242 173 293 30 51 53 94
51 96 -10 7 -247 145 -277 160 -47 24 -119 29 -166 12z m177 -151 c112 -62
107 -50 53 -144 -26 -44 -52 -81 -56 -81 -10 0 -139 77 -161 97 -37 32 -31
102 12 142 33 31 81 27 152 -14z m-125 -275 c39 -23 70 -45 68 -48 -38 -72
-91 -152 -98 -152 -26 0 -157 93 -168 119 -26 64 28 137 95 127 17 -2 63 -23
103 -46z"/>
<path d="M6003 1576 c-23 -12 -45 -25 -49 -28 -3 -4 16 -49 44 -100 27 -51
100 -192 162 -313 62 -121 114 -221 115 -222 1 -2 27 11 59 28 l56 31 -106
206 c-200 387 -219 422 -229 421 -5 0 -29 -10 -52 -23z"/>
<path d="M4447 1079 c-50 -27 -82 -92 -72 -150 16 -91 119 -143 202 -103 75
37 103 120 65 193 -37 73 -123 100 -195 60z"/>
</g>
</svg>
