<?xml version="1.0" standalone="no"?>
<!DOCTYPE svg PUBLIC "-//W3C//DTD SVG 20010904//EN"
 "http://www.w3.org/TR/2001/REC-SVG-20010904/DTD/svg10.dtd">
<svg version="1.0" xmlns="http://www.w3.org/2000/svg"
 width="300.000000pt" height="143.000000pt" viewBox="0 0 300.000000 143.000000"
 preserveAspectRatio="xMidYMid meet">

<g transform="translate(0.000000,143.000000) scale(0.100000,-0.100000)"
fill="#171796" stroke="none">
<path d="M2055 1421 c-8 -15 -335 -989 -335 -1002 0 -6 46 -9 127 -7 l127 3
86 280 c47 154 88 286 91 294 3 7 31 -98 63 -235 32 -137 62 -266 67 -286 10
-38 10 -38 62 -38 l52 1 160 270 c88 149 164 273 168 276 8 5 4 -205 -9 -450
l-5 -107 129 0 130 0 6 153 c6 128 24 840 22 843 -1 1 -60 4 -132 7 l-131 5
-152 -264 c-85 -146 -156 -263 -159 -260 -3 3 -28 122 -56 263 l-51 258 -127
3 c-76 1 -129 -1 -133 -7z"/>
<path d="M135 1243 c-16 -98 -51 -324 -80 -503 -45 -286 -49 -326 -36 -332 31
-13 327 -8 417 7 350 60 579 241 679 536 19 56 55 210 55 235 0 2 38 4 85 4
62 0 85 -3 85 -12 -1 -7 -31 -182 -68 -388 l-68 -375 119 -8 c66 -5 123 -5
127 0 4 4 38 175 74 378 37 204 70 378 73 389 5 17 14 18 106 15 l102 -4 15
112 16 111 -29 6 c-16 3 -170 6 -343 6 l-313 0 -6 -47 c-23 -185 -67 -330
-135 -445 -107 -180 -257 -293 -453 -342 -103 -26 -281 -43 -291 -28 -3 5 15
153 39 328 25 176 45 320 45 322 0 1 47 2 105 2 80 0 117 -5 159 -20 109 -41
159 -136 136 -260 -27 -149 -82 -213 -230 -267 -61 -23 -62 -24 -21 -18 60 8
207 64 277 106 144 86 219 196 219 319 -1 169 -103 286 -292 335 -43 11 -118
15 -299 15 l-241 0 -28 -177z"/>
<path d="M18 194 c-5 -4 -8 -47 -8 -96 l0 -88 55 0 c71 0 95 23 95 91 0 64
-21 88 -85 95 -27 3 -53 3 -57 -2z m103 -55 c14 -27 3 -85 -17 -93 -45 -17
-54 -9 -54 54 0 60 0 60 30 60 20 0 33 -7 41 -21z"/>
<path d="M216 110 c-20 -50 -36 -92 -36 -95 0 -15 40 -2 45 15 5 15 15 20 45
20 30 0 40 -5 45 -20 4 -11 15 -20 27 -20 12 0 18 5 15 13 -3 6 -20 49 -38 95
-43 110 -56 109 -103 -8z m74 -17 c0 -7 -9 -13 -20 -13 -21 0 -25 15 -13 46 6
16 7 16 20 -2 7 -10 13 -24 13 -31z"/>
<path d="M350 188 c0 -7 13 -49 29 -93 24 -68 32 -80 51 -80 20 0 27 12 53 87
17 49 28 91 24 94 -15 16 -35 -9 -52 -65 -10 -34 -21 -61 -25 -61 -3 0 -15 28
-26 62 -13 41 -26 64 -37 66 -9 2 -17 -2 -17 -10z"/>
<path d="M741 178 c-5 -13 -20 -52 -35 -87 -14 -36 -26 -68 -26 -73 0 -17 38
-7 43 12 4 16 14 20 45 20 31 0 41 -4 45 -20 3 -12 14 -20 26 -20 l21 0 -21
52 c-12 29 -26 67 -32 83 -20 59 -50 74 -66 33z m44 -75 c5 -18 2 -23 -13 -23
-27 0 -32 9 -20 36 12 26 22 22 33 -13z"/>
<path d="M850 180 c0 -15 7 -20 25 -20 24 0 25 -2 25 -75 0 -68 2 -75 20 -75
18 0 20 7 20 75 0 73 1 75 25 75 18 0 25 5 25 20 0 18 -7 20 -70 20 -63 0 -70
-2 -70 -20z"/>
<path d="M1080 180 c0 -15 7 -20 25 -20 24 0 25 -2 25 -75 0 -68 2 -75 20 -75
18 0 20 7 20 75 0 73 1 75 25 75 18 0 25 5 25 20 0 18 -7 20 -70 20 -63 0 -70
-2 -70 -20z"/>
<path d="M1250 105 l0 -95 70 0 c54 0 70 3 70 14 0 11 -15 16 -52 18 -46 3
-53 6 -56 26 -3 20 0 22 47 22 38 0 51 4 51 14 0 11 -14 16 -47 18 -36 2 -49
7 -51 21 -3 14 4 17 47 17 44 0 51 3 51 20 0 18 -7 20 -65 20 l-65 0 0 -95z"/>
<path d="M1442 184 c-46 -32 -20 -82 51 -98 20 -5 27 -12 25 -24 -4 -23 -56
-29 -64 -8 -3 9 -15 16 -25 16 -22 0 -23 -4 -8 -31 26 -49 123 -43 135 8 9 36
-6 55 -56 73 -44 16 -52 29 -26 45 10 6 20 4 34 -8 23 -21 42 -22 42 -3 0 19
-38 46 -65 46 -11 0 -31 -7 -43 -16z"/>
<path d="M1582 183 c2 -11 14 -19 31 -21 l28 -3 -2 -72 c-2 -60 0 -73 14 -75
15 -3 17 7 17 72 0 74 0 75 28 78 16 2 27 9 27 18 0 12 -16 16 -73 18 -66 3
-73 1 -70 -15z"/>
<path d="M1827 193 c-4 -3 -7 -46 -7 -95 0 -81 2 -88 20 -88 18 0 20 7 21 63
l1 62 15 -62 c11 -50 18 -63 33 -63 19 0 40 49 40 92 0 9 5 20 10 23 6 4 10
-17 10 -54 0 -48 3 -61 15 -61 12 0 15 17 15 96 l0 95 -27 -3 c-23 -3 -29 -11
-44 -63 l-17 -60 -17 63 c-15 51 -22 62 -40 62 -12 0 -25 -3 -28 -7z"/>
<path d="M2061 118 c-18 -46 -35 -89 -38 -95 -3 -8 3 -13 15 -13 12 0 23 9 27
20 5 15 15 20 45 20 30 0 40 -5 45 -20 5 -16 45 -30 45 -16 0 2 -15 44 -34 93
-47 120 -62 122 -105 11z m63 0 c9 -35 8 -38 -14 -38 -11 0 -20 3 -20 8 0 19
13 52 20 52 4 0 10 -10 14 -22z"/>
<path d="M2230 197 c-3 -3 -4 -46 -2 -96 3 -71 7 -91 18 -91 10 0 14 12 14 41
0 33 3 40 16 35 9 -3 17 -6 19 -6 2 0 13 -16 25 -35 19 -31 60 -49 60 -27 0
10 -31 55 -43 63 -5 4 0 12 12 18 15 9 21 21 21 46 0 18 -5 37 -11 40 -14 9
-122 19 -129 12z m105 -57 c0 -10 -12 -16 -37 -18 -33 -3 -38 0 -38 18 0 18 5
21 38 18 25 -2 37 -8 37 -18z"/>
<path d="M2417 194 c-4 -4 -7 -47 -7 -96 0 -81 2 -88 20 -88 15 0 20 7 20 29
0 25 25 61 34 50 1 -2 13 -21 25 -41 21 -35 27 -38 66 -38 35 0 45 4 50 20 9
29 81 29 90 0 6 -18 15 -20 106 -20 81 0 99 3 99 15 0 11 -12 15 -50 15 -27 0
-50 3 -50 6 0 3 20 30 45 61 25 30 45 63 45 74 0 17 -8 19 -65 19 -58 0 -65
-2 -65 -20 0 -17 7 -20 41 -20 l40 0 -45 -56 c-26 -31 -46 -63 -46 -72 0 -27
-13 -4 -45 81 -24 62 -37 83 -53 85 -17 3 -25 -10 -52 -83 -18 -47 -36 -88
-40 -90 -5 -3 -23 18 -40 45 l-33 51 24 27 c13 15 27 28 32 30 15 7 6 22 -13
22 -10 0 -36 -18 -57 -41 l-38 -41 -5 38 c-5 36 -19 52 -33 38z m267 -76 c9
-35 8 -38 -14 -38 -11 0 -20 3 -20 8 0 19 13 52 20 52 4 0 10 -10 14 -22z"/>
<path d="M2947 194 c-4 -4 -7 -47 -7 -96 0 -82 1 -88 20 -88 20 0 21 5 18 92
-3 84 -12 111 -31 92z"/>
<path d="M540 100 l0 -90 65 0 c51 0 65 3 65 15 0 11 -12 15 -50 15 l-50 0 0
75 c0 60 -3 75 -15 75 -12 0 -15 -17 -15 -90z"/>
</g>
</svg>
